<svg xmlns="http://www.w3.org/2000/svg" viewBox="0 0 1744 1744" fill="none" shape-rendering="auto"><metadata xmlns:rdf="http://www.w3.org/1999/02/22-rdf-syntax-ns#" xmlns:xsi="http://www.w3.org/2001/XMLSchema-instance" xmlns:dc="http://purl.org/dc/elements/1.1/" xmlns:dcterms="http://purl.org/dc/terms/"><rdf:RDF><rdf:Description><dc:title>Notionists</dc:title><dc:creator>Zoish</dc:creator><dc:source xsi:type="dcterms:URI">https://heyzoish.gumroad.com/l/notionists</dc:source><dcterms:license xsi:type="dcterms:URI">https://creativecommons.org/publicdomain/zero/1.0/</dcterms:license><dc:rights>Remix of „Notionists” (https://heyzoish.gumroad.com/l/notionists) by „Zoish”, licensed under „CC0 1.0” (https://creativecommons.org/publicdomain/zero/1.0/)</dc:rights></rdf:Description></rdf:RDF></metadata><mask id="viewboxMask"><rect width="1744" height="1744" rx="0" ry="0" x="0" y="0" fill="#fff" /></mask><g mask="url(#viewboxMask)"><g transform="translate(531 487)"><path d="M554 727.7c-99.2 297-363.8 388.6-503.7 19.8-19.3-50.7 31-69.5 66.2-91.9 24.1-15.3 36.8-28.5 35.3-42.2-7-64.4-36.9-243.8-36.9-243.8l-3-5.8s.7-1.6-2.2 1.2c-3 3-9.9 34.2-37 34.2-24.5 0-49.2-10.9-61-86.3C7.2 285.6 9.6 214 40 201c12.5-5.3 24-7.2 35.2-.8 11.3 6.4-13-22 112-126C268.4 6.4 396.7-3.5 448.5 8 500.3 19.5 552 44.8 574.9 98.5c27.8 65-25.9 114.3-14 262.5-2.2 53.6.8 171.2-146.6 210.6-28 7.5-19.3 48.4 22.7 58.4 67 21 117 72.3 117 97.9" fill="#fff"/><path fill-rule="evenodd" clip-rule="evenodd" d="m554 266.2.1-1.4c4.1-36.4 8.2-71.7 27.1-103.4 6.5 4.4 5.7 10 3.7 15.2-19.9 51.2-18 104.4-16.2 157.6l.4 14c2.1 66.4-14.5 126.8-58.7 177.5-15.4 17.6-35.8 29.8-56.5 40.3-21.4 11-25.9 20.1-19.2 43.6l.8 2.6c1.4 3.9 2.8 7.9-1 11.8-4.5 4.6-9.5 3.3-14.8 1.8l-.6-.1a406.4 406.4 0 0 1-137-68.3c-6-4.4-10.8-10.3-15.5-16.1l-.3-.4c-2.5-3-3-7.8.5-10.4 3.3-2.5 5.8-.5 8.7 1.8l1 .9a145.5 145.5 0 0 0 76.3 31.7c13.4 1.4 26.6.9 40 .4 7.4-.3 14.8-.6 22.3-.5 10.2 0 18.7-4.7 26.7-9.2l2.8-1.6c27.8-15.5 54.3-32.8 72.2-60.7 16.1-25 25.9-52.2 31.6-80.9 7.2-36.1 6.6-72.7 6-109.8-.3-12-.5-24.2-.5-36.4ZM50.6 190.8c21.9-1.7 34 11.2 44.3 26.3a140.4 140.4 0 0 1 22.4 61.5c.5 3.7 1 7.6-1.2 11.3-4.5.6-4.9-3-5-5.6-.5-20.7-9.7-38.7-18.9-56.1-6.6-12.5-16.2-24.6-31.4-27.6-17.2-3.5-33 12-40.8 32.2-14.5 37.6-12 74.6 1.4 111 5.8 15.9 13.1 32.1 27.8 43.2 14.8 11.3 32.7 9.3 43.6-5.7l2-2.5c2-2.6 4-5.1 5-8 2.1-5.8 5.4-11.2 11.3-10.4 6.8 1 8 8.3 8.7 14a3661 3661 0 0 0 22 156.7l5.9 38.8c2.6 17.1 5.6 41.7 3.6 52.1a28 28 0 0 0-.3 2.2c-.4 2.8-.6 5-4.2 5.5-4.9.8-7-2-7.7-6.4-2.3-17-3-23.6-4-49.6-.9-25.2-5.6-50-10.4-74.9l-5-27c-5.2-30.8-10.3-62-10.8-97l-2 3c-7.6 11.3-13.7 20.5-24.5 24a40.5 40.5 0 0 1-46.1-12.5 127.8 127.8 0 0 1-28.8-55.8c-8.4-34-9.9-67.1.9-100.6 5.2-16.1 23.7-44.7 42.2-42Zm34.6 127.5c4.4 3.2 8.4 6 12-5.4-1.1-42.2-14.7-69.2-35.8-70.3 11.2 14.6 22 28.8 23 48.5a32.3 32.3 0 0 1-10.7-8.8c-2-2.2-4-4.4-6.5-6l-3-2.4c-4.8-3.6-9.7-7.4-17.8-4.5 3.8 5.8 9 10 14.3 14 6 4.7 12 9.3 15.6 16.5-10.6 7.7-15.2 17.7-9.7 29.9 4.8 10.5 11.9 19.2 25.9 19.8-.6-6.3-4.7-10.9-8.8-15.4-5-5.4-9.7-10.6-7.5-18.6 3.2-1.5 6.2.7 9 2.7Z" fill="#000"/></g><g transform="translate(178 1057)"><path d="M1301.3 694.3H182L6 692s25.8-236.8 36.7-268.4C69 348 95.3 256.1 163.2 211.3c29.6-19.6 53.3-37 55.2-47.6 1-5.3 97.8-99.7 115.3-109.2C417.2 8.9 498.5 36 498.5 36l.9 18.8s1.9 22.7 6.9 29.4c22.7 31 101.3 50.4 154.1 54.7 66.3 5.3 138.5-24.7 140.7-46.7 1.7-17.3-21.4-48.5 11.8-61.6C838.5 20.6 914.5 27 941 37.3c34.1 13.2 99 53.5 130.3 93.4 12.2 15.6 14.7 59.5 56.3 72.4 62 19.1 109.6 108.7 135.3 220.5 13.1 57.2 38.4 270.7 38.4 270.7Z" fill="#fff"/><path d="m843.7 694.3-377.5-.3s-13.5-434.3-13.5-523.6c0-74 36.6-154.8 52-130.7 28.5 44.5 76.5 55 149 58.3 115 5.1 121.6-38 137.3-46.8 31.4-17.9 52.7 56.4 52.7 133v510.1Z" fill="#000"/><mask id="bodyVariant09-a" style="mask-type:luminance" maskUnits="userSpaceOnUse" x="453" y="259" width="392" height="433"><path d="m467 692-14-432.5h392V692H467Z" fill="#fff"/></mask><g mask="url(#bodyVariant09-a)"><g transform="translate(396 278)" style="mix-blend-mode:difference"><path d="M204.9 175.7s150.1 43.7 172 42.1c9.5-.6 13.6-7 11.8-16.2a28 28 0 0 0-5.5-12c-2.9-4-186-225.6-203.5-184.5a16 16 0 0 0 .5 12.5c4.3 8 10.8 14.4 16.3 21.3 21.4 24.8 41.6 50.6 63.1 75.3 12.7 14.9 30.5 34.2 37.9 47.7-5.4-.5-15.1-3.5-21.1-4.9-13.5-3.4-27-7-40.5-10.3a313.1 313.1 0 0 0-60.2-9.7c-9.2-.1-20.4-.4-27 7.1-5.2 6.5-6 15.8-2.8 23.3 4 8.3 10.7 15 16.6 22a855 855 0 0 0 29.6 30.9c18.8 18.5 37.3 37.2 56.2 55.5 22 21 43.5 42.3 65 63.7 15.9 15.5 32 30.7 47.9 46.2 4.8 4.7 9.6 9.4 14.8 13.7l5.3 4.2c1.2.8 2.4 1.7 3.9 1.8 2.5-.4 3.3-3.5 3.6-5.7.9-5.8-2.8-10.7-5.6-15.3C358.6 345.7 205 175.7 205 175.7Z" fill="#fff"/></g></g><path d="M1295 694c-6.2-21.3-11.5-73.3-14.9-102-2.4-20.7-19.6-166.5-38.5-217.4-11.6-31.1-22.4-63-39.5-92.1-11.7-20-29.3-34.3-46-48.9a513 513 0 0 0-67-48.2c-30.9-19.2-63.4-23-97.6-11.7a32 32 0 0 0-21.9 24.3c-13.4 53.3-9.1 107.6-9.8 161.6-.8 69.8 3.1 139.5 5.2 209.2 1.8 57.2 0 66.7-.6 125.2h-14.5c-.9-32.2-.4-15.3-.6-47.5-.2-47.6-.8-95.1-1.6-142.7-.6-37.8-.3-75.7-2.8-113.5-2.6-39.6-2.7-79.1.7-118.6 2.5-28.2.1-57 11.3-84.3 9.4-23 28.3-31.8 49.9-33.5 22.4-1.7 45.7-4.8 69.8 9.3-4.8-16.6-15-24.7-22.6-34-28-34.2-65.5-55.5-103.6-76.8-39.3-22-80.7-19-122.6-17.4-6.5.3-12 3.8-17.8 6.7-7.5 4-15.3 7.3-26.6 4.8 9.5-13 22.1-17.3 35.1-21.1 37.1-10.8 73-5.2 95.7-1.8C943 28 1042.7 76 1089.7 151.5c22.3 35.9 85.8 36.4 143.6 157.6a528 528 0 0 1 34.7 100.7c10.9 44 39.5 252.6 39.5 284.2H1295ZM15.3 694c2-6.9 2.7-9.9 3.6-15.7 4.6-28.4 5.5-57.6 8.9-86.3 2.4-20.6 3.3-41.4 6-62 7.2-52.7 15.6-105 32.5-155.4 10.7-31.7 22.4-63 39.5-92.1 11.7-20 29.3-34.3 46-48.9 20.7-18 43.5-33.7 67-48.2 30.9-19.2 63.4-23 97.6-11.7a32 32 0 0 1 21.9 24.3c13.4 53.3 9.1 107.6 9.8 161.6.8 69.8-3.1 139.5-5.2 209.2-1.8 57.2.5 125 .5 125l14.6.2c.9-32.2.4-15.3.6-47.5.2-47.6.8-95.1 1.6-142.7.6-37.8.3-75.7 2.8-113.5 2.6-39.6 2.7-79.1-.7-118.6-2.5-28.2-.1-57-11.3-84.3-9.4-23-28.3-31.8-50-33.5-22.3-1.7-45.6-4.8-69.7 9.3 4.8-16.6 15-24.7 22.6-34 28-34.2 65.5-55.5 103.5-76.8 39.4-22 80.8-19 122.7-17.4 6.5.3 12 3.8 17.8 6.7 7.5 4 2.3 11.5 6.4.7 5.8-15-2-13.2-15-17-37-10.8-74-4-111 .5-7.4 1-14.8 4.4-21.5 8-51.4 27.8-116 77.2-138.6 117.6-12 21.6-30.7 32.8-47.5 47.7C111 252.3 95.3 263.8 74.6 309a573.6 573.6 0 0 0-34.7 100.7c-11 44-19.1 88.6-22.8 134.2-2.7 32.4-7.4 64.8-10.3 97.4-2 22.8-3.5 39.7-3.5 52.6h12Z" fill="#000"/><path d="M1131.8 694c2-23.7-8-84.7-12.5-115.7-3.3-22.6-3-46-11.4-67.7-2.1-5.4-1.5-12.4 5.3-13.5 6.4-1 9.2 3.5 10.7 10.8 7.8 38.3 11.3 77.2 16 116 3.5 30 7.8 60 8.5 70l-16.6.1ZM193.3 694c1.4-23.6 8-84.7 12.6-115.7 3.3-22.6 3-46 11.4-67.7 2.1-5.4 1.5-12.4-5.3-13.5-6.4-1-9.3 3.5-10.7 10.8-7.8 38.3-11.3 77.2-16 116-3.6 30-5.7 70.1-5.7 70.1h13.7Z" fill="#000"/><path d="M467.4 694.3S452.7 266.8 452.7 179c0-72.8 36.6-163 52-139.2 28.5 43.8 77.2 58.4 149.7 61.5 115 5 120.9-41.3 136.6-50 31.4-17.6 52.7 66 52.7 141.4V694" stroke="#000" stroke-width="15"/></g><g transform="translate(266 207)"><path d="M285.9 361.5a626.9 626.9 0 0 1 50.8-83c14.5-19.4 28.8-39 47.6-54.5 24-19.9 50-35.2 80.2-44.6 25.8-8 51.2-6.9 77-5 7.7.6 11.5-2 11.8-9.5.3-7.6-.3-15.4.3-23 1.6-22.8 20-31.6 39-19.2a124.8 124.8 0 0 1 36.9 36.2c1.8 2.9 4 5.6 8.7 6.2 5.4-5.7 8.5-14 15.7-18.7 6-3.9 12.2-9.2 19.9-5 6.9 3.7 10 10.2 9.4 18.2v5.1c.1 13.4 0 23.1 18.4 29 26.3 8.4 49.2 26 70.6 44.5 40 34.8 62.7 80 73.3 130a488 488 0 0 1 12 107.6c-1 68 4.6 136 16.7 203 6.4 34.9 15 68.8 27.3 101.7 3.9 10.3 8.6 20.3 14.1 29.8 13 22.2 2.6 32.2-17.2 38.8-5 1.8-10.8 1.6-17.4 2.5 5.1 11.6-.8 15.3-11.5 17.2-43 7.7-30 7.8-71.5-4 6 11.6 0 15.8-10.1 17.3-26.6 4-52.5 4.8-75.3-13.2-6-4.7-9.4-10.8-12.8-17.2-4.3-8.2-2.4-14 6.2-18.6 34.4-18.4 57-48 74.3-81.7 15-28.8 25.6-59 30.1-91.4 1.7-11.7-.3-22.8-.4-34.2-.5-40-3-80.1 1.2-120 2-19.4 6.8-38.5 6-58.3-.6-18-6.5-27.4-23.5-31.4-27.7-6.6-54.7-14.5-79.1-29.8-6.6-4.1-15.6-3.2-22.6-.5-35.4 13.7-67.6 1-99.4-12.3-16.1-6.7-20.1-7.4-28.5 6.8-19.1 32.8-50.5 51.8-79.6 73.7-24.4 18.4-54.2 27.5-77.8 47.8-21.7 18.7-29.8 40.5-24.7 67.7a107.8 107.8 0 0 0 25.7 50.5c14.8 17.2 32.3 32.3 42 53.8 16 35 24.5 71 12.6 108.3-8 25.1-22.3 47.6-41 66.7-8.8 9-21.3 8-32.6 9.1-18.1 1.8-36.5 2.1-54.8 2.9-4.2.1-9.6.2-11.1-4.4-1.5-4.5.7-9 4.4-12.6 17.3-16.4 20.7-38.3 23.5-60.5a558.3 558.3 0 0 1-33.5 43.2c-10.7 12.5-21.4 25-36.5 32.8-28.1 14.4-56.6 12.3-85.3 2.5A108 108 0 0 1 169 849c-13-9-13.9-12.3-4.8-26-17.1-2-34-4.2-47.8-15.2-7.9-6.3-7-11.4 2.6-14.2 34.2-10.1 56.9-33.7 76.2-62.2 23-34 28-72.2 27.7-111.7 0-25.7 4.6-50.6 8.6-75.8 4.2-26.4 8.3-52.8 15-78.7 7.1-28.3 15.4-56.2 29.9-81.8 3.7-6.7 6-14 9.4-22Z" fill="#000"/></g><g transform="translate(791 871)"><g fill-rule="evenodd" clip-rule="evenodd"><path d="m124.6 96.7 2.8 10.8c3.4 2.5 5 5.2 1.8 5.3-8 .4-28.1-18-31-26.6-2.4-6.6-2-12.3 5.6-13.1 2.5-.3 4-1.9 5.3-3.5 1.5-1.7 3-3.4 5.9-3-10.2 20.5-9.4 23 9.6 30Zm54.9-5.4c-4.2 20.3-13.8 27.6-35.3 27h-3c-2.8 0-4.7.2-6-2l.8-2c14.3 3.1 19.4-6.3 24.4-15.6l2.5-4.4a44 44 0 0 0 2-3.9c.7-1.7 1.5-3.4 2.6-5 2-2.8 4.7-5.2 8.5-3.8 4.6 1.8 4.3 6 3.5 9.7ZM135 95c1.3 8.7 6.2 6.1 10.2 2.7 2.6-2.3 4.5-5.4 6.4-8.4l1-1.6c1.7-2.8 3.7-6.6 0-8.9-3.5-2.3-6.8-1-9 3.4-1.4 3-3.6 6-6.2 9.4l-2.4 3.4Zm-4.7-23.1 3-2.8c3.5 5.4.9 9.5-2.2 14.3-1 1.4-1.8 2.8-2.6 4.3-6.8-8-2.4-12 1.8-15.8Z" fill="#fff"/><path d="M177.3 67.5c15.6 10.2 18 24 6.8 37.8a45 45 0 0 0-4 6 37 37 0 0 1-5.2 7.5 43.4 43.4 0 0 1-52 5.6l-4.7-3A83.8 83.8 0 0 1 93.1 100C81 83 82 78.4 96.7 63c4-4 8.5-6.9 13-9.8 2.8-1.7 5.6-3.5 8.2-5.5 10.4-8 25 2.1 27.9 18.1 10.2.5 20.4 1 31.5 1.7Zm-33.1 50.7c21.5.7 31-6.6 35.3-27 .8-3.7 1.2-7.8-3.5-9.6-3.8-1.4-6.6 1-8.5 3.8-1 1.6-1.9 3.3-2.7 5-.6 1.3-1.2 2.7-2 4l-2.4 4.3c-5 9.3-10 18.7-24.4 15.5l-.8 2.1c1.3 2.2 3.2 2 6 2h3Zm-19.6-21.5 2.8 10.8c3.4 2.5 5 5.2 1.8 5.3-8 .4-28.1-18-31-26.6-2.3-6.6-2-12.3 5.6-13.1 2.5-.3 4-1.9 5.3-3.5 1.6-1.7 3-3.4 5.9-3-10.2 20.5-9.4 23 9.6 30Zm10.5-1.7c1.3 8.7 6.2 6.1 10.2 2.7 2.6-2.3 4.5-5.4 6.4-8.4l1-1.6c1.7-2.8 3.7-6.6 0-8.9-3.5-2.3-6.8-1-9 3.4-1.4 3-3.6 6-6.2 9.4l-2.4 3.4Zm-4.7-23.1 3-2.8c3.5 5.4.9 9.5-2.2 14.3a65 65 0 0 0-2.6 4.3c-6.8-8-2.4-12 1.8-15.8Z" fill="#000"/></g></g><g transform="translate(653 805)"></g><g transform="translate(901 668)"><path d="M68.7 106.5c6.5 23.1 15 44 30.2 62.1 6.2 7.4 3.6 18.1-3 24.6-13.8 13.4-29.3 24-50 15.6-5-2-9.2.5-13.7.9-9.5.8-16.6-1.5-16.6-14.3 13.2 2.4 25-7.3 38.9 1.2 6.2 3.9 17.9-.6 24.9-6 5.7-4.5 9.8-10.7 2.5-19.3-19-22.7-27-50.3-30-79.1a60 60 0 0 1 4.6-28.6C58.3 59 61.7 55 67.3 57c5.5 2 4.5 7.3 3 11-5.2 12.4-4 24.9-1.6 38.4Z" fill="#000"/></g><g transform="translate(610 680)"><path d="M409.2 75.7c13.1.3 25.4 1 37.7 2.5 3 .3 4.9 3.3 5 6.6 0 3.4-1.8 5.7-4.8 7-11.1 4.9-22 8.3-33.7.2-6.5-4.4-8.9-8.6-4.2-16.3ZM254.7 78.4c6.2 3.3 5.2 7 2.1 10.8-6.5 8-28.2 10-36.4 3.5-4.7-3.8-7.3-8.6-4.4-14.4 3-6 8.2-5 13-2.5 8 4 16.4 3 25.7 2.6Z" fill="#000"/></g><g transform="translate(610 680)"></g><g transform="translate(774 657)"><path d="M57.5 41.8C51.3 41.3 46 41 41 41c-5.7-.2-8.5-3.4-9-8.8-.5-5.3 3-7 7.5-8.5 8.6-3 17.1-.5 25.2.7 15.4 2.1 31.5-.6 46.4 6.3 5 2.3 8.3 4.7 6.4 10.3-1.8 5.2-6.1 5.2-10.6 4.1-16-3.7-32.4.9-49.4-3.3ZM251.8 32c17.2.9 33.1-5 49.3-1.2 4 1 9 .7 8.8 7 0 6.2-4.7 7.4-9.5 8-19 2.2-38 4-56.9 6.4-5.7.7-11 .1-12.6-5.6-1.7-5.7 4-7.8 8-10 3.5-2.1 7.8-3.1 12.9-4.7Z" fill="#000"/></g><g transform="translate(0 559)"><path d="m1724 1191.5-235.9 2.6s-64.3-75.3-31.2-274.1c4.8-28.8-15.4-210.2-16-224-1.9-36.3-15-106-32.4-133.5-78-124-65.6-142.6-69.3-170.7-3.9-29.7-10.5-81.2-15.3-101-2.2-9.2-18.2-74.1-.3-76 85.2-9.2 56.6 151.8 89.4 138.7 50.2-20 64-83.6 64-83.6s75.1-171.2 109.4-171.2c14 0-7.3 88.5-7.3 88.5s77.8-91.2 94.5-90.2c16.7 1-12.2 70.5-12.2 70.5s36.5-28.2 49.8-18c17.6 13.6-76 151.2-62.2 152 10.5.5 30.8-34 44-39.8 22-10 29.9-11.8 30.7 8.3 1 21.3-47.7 85.6-70.3 121.8-11.7 18.7-80.9 127.4-96 157.3-19.2 37.7 18.5 101 33.8 131.5 15.2 30.5 74.1 207.2 94.9 239.3 20.7 32.2 40.8 83.9 47.7 138.7 7.5 60.7-9.7 132.9-9.7 132.9Z" fill="#fff"/><path fill-rule="evenodd" clip-rule="evenodd" d="M1429.3 663a867 867 0 0 0 3 22l-3-27.6c-3.5-31.3-7-62.1 8.3 70.8 1.2 10.1 2 20.3 3 30.5 3.3 40.3 4.2 80.7 5 121.1.2 4.6 1.2 9.3 2.2 13.9a47.1 47.1 0 0 1 1.7 18.7c-2 10.7-3.1 21.5-4.2 32.3-1.5 15.8-3 31.6-7.8 47-2.2 7-2.4 14.1-2.4 21.4.1 41.7 4 82.8 17.2 122.8 7 21.2 15.6 41 30.9 58.2h11.7c-3.2-10.7-8.5-20.3-13.7-30-3.7-6.6-7.3-13.2-10.3-20.2-8.1-19.4-13.4-40-15.6-61v-.7c-2.2-19.5-4.4-39.2-3.6-59 .6-12.4 1.8-24.3 10-35.4 2.9 9.4 5.6 18.7 8.3 28 18.1 62.7 36.1 125 79.4 177.5 5.6.8 11.3.8 16.9 0a321.4 321.4 0 0 1-64.3-119.8l-4.7-15.1c-11-36-22.2-72.3-26.7-110-1.2-9.8-2.9-19.5-4.6-29.2-2.4-14.2-5-28.4-5.7-42.7l-1.8-32.4c-3.2-58.3-6.4-116.7-13.9-174.8-5.7-45-18.6-88.8-38.2-129.7-8.4-17.4-18.1-34.2-27.8-51-7-12.2-14-24.4-20.6-36.8-1.4-2.6-3-5.1-4.5-7.7-5-7.8-10-15.8-8.9-26 4-41.1-4.1-80.8-12.3-120.5l-3.7-18.1c-3.2-16.2-6-32.7-4.8-49.4.7-10.2 6.4-13.7 14.2-8.3a114.8 114.8 0 0 1 42.4 59.8c6.4 19.3 8.4 40.7 8.8 61.7.4 15.7 11.5 22.4 26.5 18 17.9-5.5 28.7-19.2 39.5-32.8l.8-1c10-12.8 16.2-27.7 22.3-42.6 2.4-5.8 4.7-11.6 7.4-17.3a1384.4 1384.4 0 0 1 65.6-126.7c8-13.6 16.3-27.9 34-34.2l-3 17.7c-7.2 42.3-14.1 83.8-30.2 123.3l6.3 3c28.1-55.9 60.3-108.7 110.5-148.6a26 26 0 0 1 1.5 18.6c-5 22.7-16.3 42.5-27.6 62.3-4 7-8 14-11.8 21.2-5.1 9.7-11 19.1-16.8 28.5a707 707 0 0 0-11.2 18.4l-.3.6c-2.6 4.6-5.7 9.8-1.5 15.1 4.2-.4 5.7-2.9 7-5.2l.4-.5a469 469 0 0 1 30.7-46.9l7.8-10.3c12.7-16.8 25.4-33.7 42.6-46.6l2-1.5c4.6-3.6 9.5-7.4 14.6-2.8 6 5.4 4 13.5.3 20-5.1 9.3-10.4 18.5-15.7 27.7-7 12-14 24.2-20.6 36.5l-7.8 14.3a2535.2 2535.2 0 0 0-33.3 62.9c-2.2 4.2-3.7 8.7 2.9 13.4a186 186 0 0 0 32-30.2c13.4-14.8 26.9-29.8 46.1-38.3 6.1 8.5 7.7 16 .8 26.2a1436.3 1436.3 0 0 0-30.4 47c-6.6 10.7-13.3 21.3-20.2 31.8-6.2 9.5-11.6 19.5-17 29.4-7.4 13.5-14.8 27-24 39.3a682.4 682.4 0 0 0-59.4 97.2c-15.5 30.3-12.6 60.4-2.5 90 12 35.4 28 69.5 44.5 103.3a598.8 598.8 0 0 1 30.2 81.4 3786.8 3786.8 0 0 0 5 16c8.2 25.4 16.4 51 22.7 77.2l4.6 18.7a557.3 557.3 0 0 1 13.9 67c4.1 33.3 3.7 66.8 0 100.4l-1.5 13c-3.6 34-7.1 67.7-27.2 96.9h34.6c46.8-83.9 30.3-168.9 3.2-254a103.9 103.9 0 0 1 22.2 45.1 625.3 625.3 0 0 1 13.8 67.3 342 342 0 0 1-6.1 137c-.5 1-1 2.1-1 3.7 3.9.9 8 .9 11.8 0l.7-1.3a70.5 70.5 0 0 0 7.8-21c3.8-25.2 6.5-50.6 6.5-76 0-38.4-9.2-75.7-18.5-112.8-.6-2.2-1-4.6-1.5-6.9-1.1-5.5-2.2-11-5-16.2-11.3-22-22.4-44.3-33.4-66.5l-20.5-41.2a572.8 572.8 0 0 1-29.8-76.5 705.2 705.2 0 0 0-23.6-63.5 873.1 873.1 0 0 1-15.8-38.8c-6.8-17.3-13.6-34.6-21.7-51.2-12.6-25.6-15.6-50.6-6-77 8.3-23.3 22-43.5 35.7-63.7 4.6-6.8 9.2-13.5 13.6-20.4 5-7.7 10.2-15.3 15.5-23a430.3 430.3 0 0 0 24.8-38.6c11.7-21.3 24.8-41.8 37.8-62.2a1737.1 1737.1 0 0 0 21-33.3c7-11.5 14.2-23.2 12.7-37.6-1.9-18-12.2-23.2-28.5-15.5-6.9 3.3-12.8 7.8-18.8 12.4-4.5 3.4-9 6.8-13.8 9.7a45.6 45.6 0 0 0 8.9-16c1.4-3.4 2.7-7 4.6-10.1a1100 1100 0 0 0 38-70.4 26.6 26.6 0 0 0-4.7-31c-7.2-7.2-16.9-6.1-25.7-.3a38.7 38.7 0 0 1-8 3.6l-3.7 1.5a56.7 56.7 0 0 0 8.7-38c-.2-6.8-.4-13.6-7.5-17a20.7 20.7 0 0 0-22.7 2.8 318.2 318.2 0 0 0-44.7 44.3l-1.7 1.8c-3 3.5-5.9 7.2-8.7 11-4.9 6.4-9.8 13-16.2 18.3 6.6-19 9.4-38.5 12.3-57.9a101.8 101.8 0 0 1 .8-5c1-5.7 2.1-11-4.1-15-6.8-4.4-13.2-1.4-19.2 2.2-17.1 10.5-28.3 26.5-38.2 43.3a939.6 939.6 0 0 0-41 80.1c-3.5 7.6-7.3 15-11 22.5a486 486 0 0 0-22.5 50.1 108 108 0 0 1-41.1 52.6c-10 6.8-17.8 3.3-19-7.6l-1-9.3c-2.5-23.6-4.9-47-15.7-69.7-8.8-18.7-19-34.5-35.7-46-14.7-10.3-30.5-7.4-35 6.2a55.8 55.8 0 0 0-3 20c1 22.1 5.8 43.5 10.5 65a751 751 0 0 1 7 33.8c.7 4.3 1.6 8.7 2.6 13 2.9 13.8 5.8 27.5 3.3 42.3a100.1 100.1 0 0 0 0 35.5c4 20.8 14.4 38.7 24.7 56.5 6.2 10.7 12.4 21.4 17.2 32.8a522.4 522.4 0 0 0 22.5 44.5l10.4 19.4c13.5 26 17 53.5 20.5 81.1Zm269.3 396.4.1 2.4c2.2 30.8-4.6 58.3-12 85.7 5.1-20.3 6.2-41.1 7.3-62 .5-10.8 1-21.5 2.2-32.3 2.5 1.6 2.4 4 2.4 6.2Z" fill="#000"/><path d="M1511.1 397.6c-2.9 24-8.6 45.7-22.8 65.2-6-5.5-5.1-9.9-3.5-13.7 15.6-36.6 14.3-75.6 17-114l.2-6.4c0-4.1.4-8 6-7.9 5.4.1 6 4.6 6 8.2 0 14.4.5 29-1.2 43.3-.9 8-1.4 16-1.7 25.3ZM1530.8 532.9c4.8-2.8 9.2-4.3 11.6.8 1.8 3.5-1.7 5.7-4 8.3a91.9 91.9 0 0 1-28.1 23 26.3 26.3 0 0 1-24.3-.3c-3-1.4-4.5-3.8-4-7.2.5-4 3.6-4.1 6.6-4 17.3.5 30-8.5 42.2-20.6ZM1557.1 391c5.7-2 10.6-3 14.8 1-6.3 10.5-29.9 22.2-40.7 20.2 3.3-13.3 16.3-14.6 26-21.3Z" fill="#000"/></g></g></svg>